<?xml version="1.0" encoding="utf-8"?>
<!-- Generator: Adobe Illustrator 25.0.0, SVG Export Plug-In . SVG Version: 6.00 Build 0)  -->
<svg version="1.1" id="Layer_1" xmlns="http://www.w3.org/2000/svg" xmlns:xlink="http://www.w3.org/1999/xlink" x="0px" y="0px"
	 viewBox="0 0 451 292.3" style="enable-background:new 0 0 451 292.3;" xml:space="preserve">
<style type="text/css">
	.st0{fill:#1BA4BE;}
	.st1{fill:#EA6909;}
	.st2{display:none;fill:#404344;}
	.st3{fill:#D30055;}
</style>
<path class="st0" d="M165.1,112.2l13.8-21.3c10.8-16.7,21.6-33.5,32.4-50.2c3.5-5.5,7.8-9.9,14.9-10.3c8-0.5,13,4.1,17,10.2
	c8.9,13.8,17.8,27.6,26.7,41.4c13.1,20.4,26.2,40.7,39.3,61.1c0.9,1.4,1.7,2.8,2.8,4.7c-15.5,0.8-24.1,10.1-31.3,22
	c-9.6,16.1-19.8,31.8-29.6,47.8c-2.6,4.2-4.7,8.7-7.2,13.4c-1-0.5-2-1.1-3-1.8c-13-9.5-26-19-39-28.5c-10.8-8-11.4-14.9-2.4-24.8
	c3.3-3.5,6.4-7.2,9.3-11c4.6-6.4,4.5-13.2-0.4-19.3c-5.8-7.2-12-14.2-18.1-21.2C184,117.2,174.9,112.8,165.1,112.2z"/>
<path class="st1" d="M135.1,254.8c-10.6,0-21.3,0.2-31.9-0.1c-6.5-0.1-13.4-0.5-16.9-7.3c-3.4-6.6-0.6-12.5,3.1-18.2
	c19.3-30,38.7-60,58-90c8.5-13.2,21.4-14.1,31.8-2.5c2.5,2.7,4.8,5.5,7.2,8.3c5.5,6.6,5.1,11.8-1.8,16.8
	c-10.4,7.5-20.9,14.7-31.4,22.1c-10.6,7.5-11.2,14.3-1.9,23.5c8.2,8.2,16.5,16.5,24.7,24.7c5,5,6.4,10.1,4,15.3
	c-2.6,5.7-7.4,7.5-13.4,7.5C156,254.7,145.6,254.8,135.1,254.8z"/>
<path class="st2" d="M333.3,195.4c0,23,0.4,45.7-0.2,68.4c-0.3,11.4-10.5,22.4-22.2,25.5c-8.4,2.4-17.3,2-25.5-1.1
	c-10.8-4.2-17.7-12.3-18.7-23.7c-0.8-8.5,0-17.2,1.3-25.7c1.5-9.9,8.4-16,17.6-19.2c10-3.5,20.1-3.5,30.4,1.7c0-6.2,0-11.8,0-17.4
	c0-6,1.4-7.6,7.3-8.4c2.1-0.2,4.3-0.4,6.5-0.4C331,195.1,332.1,195.2,333.3,195.4z M316.3,253.6c-0.3-6.7,0.3-13.2-6.5-17
	c-12.9-7.2-26,0.1-26.3,14.7c-0.1,2.6,0,5.3,0.3,7.9c1.3,9.5,6.7,14.2,16,14.3c9.8,0,14.8-4.4,16.2-14.4
	C316.3,257.2,316.3,255.2,316.3,253.6L316.3,253.6z"/>
<path class="st2" d="M253.3,288.8l-16.3-4.2c-9.2,7.4-21.1,7-33.2,2.5c-9.2-3.4-15.2-10.1-16.7-20c-1-6.2-1.5-12.5-1.5-18.8
	c0.2-18.3,11.9-30.3,30.2-31.7c22.2-1.7,37.4,12.3,37.4,34.4V288.8z M235.8,254.7c-0.2-3.3-0.6-6.6-1.2-9.8
	c-1.6-7.3-6.2-10.7-14.3-11.3c-7.1-0.5-14.4,2.8-15.5,9c-1.1,7.1-1.2,14.3-0.3,21.5c0.5,4.4,4.6,7.1,9.1,8.2
	C227.3,275.9,235.5,269.2,235.8,254.7z"/>
<path class="st2" d="M50.6,289l-16-4.4c-9.4,7.6-21.2,7.1-33.1,2.7c-9.2-3.4-15.6-10-16.6-20c-0.9-9.5-2-19.4-0.1-28.6
	c3.1-15.5,19.9-24.4,37.6-21.8c17.4,2.5,28.3,15.1,28.3,32.9L50.6,289z M0.7,253.7H0.6c0.1,2.3,0,4.7,0.4,7
	c1.1,7.9,7.7,12.9,16.5,12.5c9.7-0.5,15-4.9,15.5-13.3c0.3-3.8,0.2-7.6,0-11.4c-0.8-10-6.4-15-16.3-14.8c-9.4,0.2-15.4,6-15.9,15.6
	C0.6,250.7,0.7,252.2,0.7,253.7L0.7,253.7z"/>
<path class="st2" d="M128.6,218.7c0,16.6,0.5,32.3-0.2,48c-0.5,11.3-11,20.5-24.1,23c-18.4,3.5-34.4-5.6-37.9-22
	c-1-4.5-0.6-9.2-0.6-13.9c-0.1-8.5,0-16.9,0-25.4c0-7.3,2-9.5,9.3-9.8c2.3-0.1,4.6,0,7.8,0c0,2.2,0,4.1,0,6
	c0.2,11.9-0.1,23.9,0.8,35.8c0.8,10,6.5,14,16.2,13.1c8.1-0.7,12.4-4.9,12.6-13.2c0.3-10.5,0.4-20.9,0-31.4
	c-0.3-9.1,3.4-9.6,9.9-10.3C124.4,218.6,126.5,218.6,128.6,218.7z"/>
<path class="st2" d="M154.4,218.6h16.1c-0.8,5.1-0.6,10.3-2.4,14.6c-2.4,5.7-8.8,1.7-13.3,3.8c0,9-0.2,18.1,0.1,27.2
	c0.2,5.3,2.4,9.4,8.5,9.4c0.9,7.7-0.6,11.9-4.8,13.5c-6,2.4-15,0-18.2-5.8c-2.1-3.7-3.2-7.9-3.3-12.2c-0.4-20.8-0.4-41.5-0.5-62.3
	c0-9.5,1.7-11.3,11.2-11.7c2-0.1,3.9,0,6.5,0V218.6z"/>
<path class="st3" d="M356.5,253.9c-2.5,0.6-5.1,0.8-7.7,0.8c-23.7,0.1-47.5,0.2-71.3,0c-15.8-0.2-22.2-12-14-25.4
	c11.4-18.5,22.8-37,34.3-55.4c4.9-7.9,10.9-11.1,18.6-8.7c4,1.2,8.3,4.1,10.6,7.5c12.5,19.4,24.5,39.1,36.6,58.8
	c0.2,0.3,0.4,0.6,0.5,0.9c1.1,2,1.8,4.2,2.2,6.5C367.6,245.5,363.1,252.4,356.5,253.9z"/>
</svg>
